# xmcd
#
# Track frame offsets:
#	150
#	17398
#	34947
#	51477
#	66482
#	85502
#	102500
#	120552
#	139975
#	154305
#	171649
#	199714
#
# Disc length: 2710 seconds
#
# Revision: 4
# Processed by: cddbd v1.5.2PL0 Copyright (c) Steve Scherf et al.
# Submitted via: audiograbber 1.83.01
#
DISCID=ac0a940c
DTITLE=Shinedown - The Sound Of Madness (Enhanced)
DYEAR=2008
DGENRE=Post-Grunge
TTITLE0=Devour
TTITLE1=Sound Of Madness
TTITLE2=Second Chance
TTITLE3=Cry For Help
TTITLE4=The Crow and The Butterfly
TTITLE5=If You Only Knew
TTITLE6=Sin With A Grin
TTITLE7=What A Shame
TTITLE8=Cyanide Sweet Tooth Suicide
TTITLE9=Breaking Inside
TTITLE10=Call Me
TTITLE11=Data Track
EXTD=Release-Date: 10.10.2008\n\nMARO\n
EXTT0=
EXTT1=
EXTT2=
EXTT3=
EXTT4=
EXTT5=
EXTT6=
EXTT7=
EXTT8=
EXTT9=
EXTT10=
EXTT11=
PLAYORDER=
